<svg xmlns="http://www.w3.org/2000/svg" width="891.856" height="683.103" viewBox="0 0 891.856 683.103"><g transform="translate(-514.003 -167)"><rect width="288" height="10" rx="5" transform="matrix(0.545, -0.839, 0.839, 0.545, 573.241, 447.206)" fill="#03ff9e"/><g transform="translate(49 -207)"><rect width="273" height="10" rx="5" transform="matrix(0.545, -0.839, 0.839, 0.545, 873.259, 1051.657)" fill="#03ff9e"/><rect width="251" height="10" rx="5" transform="matrix(0.545, -0.839, 0.839, 0.545, 977.241, 891.206)" fill="#03ff9e"/><rect width="91" height="10" rx="5" transform="matrix(0.545, -0.839, 0.839, 0.545, 972.383, 899.019)" fill="#03ff9e"/><rect width="91" height="10" rx="5" transform="matrix(0.545, -0.839, 0.839, 0.545, 972.383, 899.019)" fill="#03ff9e"/></g><rect width="162" height="10" rx="5" transform="matrix(0.545, -0.839, 0.839, 0.545, 1309.241, 589.206)" fill="#03ff9e"/><rect width="507" height="10" rx="5" transform="matrix(0.574, -0.819, 0.819, 0.574, 514.003, 798.113)" fill="#03ff9e"/><rect width="507" height="10" rx="5" transform="matrix(0.545, -0.839, 0.839, 0.545, 893.241, 592.206)" fill="#03ff9e"/></g></svg>